<svg viewBox="0 0 311.43 35.77" xmlns="http://www.w3.org/2000/svg" xmlns:xlink="http://www.w3.org/1999/xlink" id="Ebene_1" overflow="hidden"><defs></defs><path d="M23.88 27.69 19.72 27.69 16.42 12.89C15.57 8.97 15.06 5.82 15.02 5.4 14.94 5.71 14.44 9.09 13.66 12.66L10.4 27.69 6.28 27.69 0 1.05 3.42 1.05 6.8 16.62C7.54 19.96 8.16 24.27 8.24 24.7 8.28 24.47 9.06 20.04 9.75 17.01L13.28 1.05 16.89 1.05 20.58 17.59C21.43 21.47 21.9 24.42 21.94 24.7 21.98 24.51 22.64 20.47 23.49 16.51L26.79 1.05 29.97 1.05 23.87 27.69Z" fill="#646464"/><path d="M35.8 18.52 35.8 18.99C35.8 20.82 36.03 22.21 36.69 23.22 37.78 24.89 39.56 25.59 41.5 25.59 43.44 25.59 44.88 25.01 46.24 23.76L47.41 25.7C45.7 27.25 43.37 28.11 40.89 28.11 35.53 28.11 32.31 24.23 32.31 17.82 32.31 14.56 33.01 12.46 34.64 10.52 36.19 8.69 38.1 7.84 40.43 7.84 42.53 7.84 44.35 8.58 45.67 9.94 47.34 11.65 47.88 13.47 47.88 18.1L47.88 18.53 35.8 18.53ZM43.76 11.92C43.1 10.87 41.74 10.21 40.26 10.21 37.5 10.21 35.95 12.23 35.79 16.23L44.64 16.23C44.6 14.13 44.33 12.85 43.75 11.92Z" fill="#646464"/><path d="M76.96 24.66C75.56 26.91 73.5 28.19 70.98 28.19 69 28.19 67.02 27.34 65.66 25.94L65.66 35.18 62.63 35.76 62.63 12.54C62.63 9.59 62.2 8.38 62.2 8.38L65.31 7.84C65.31 7.84 65.5 8.66 65.5 10.79 67.09 8.93 69.07 7.96 71.21 7.96 73.19 7.96 75.13 8.81 76.38 10.37 77.82 12.16 78.52 14.52 78.52 17.98 78.52 21.09 78.05 22.87 76.97 24.66ZM74.4 12.82C73.78 11.5 72.38 10.68 70.83 10.68 68.89 10.68 67.14 11.61 65.66 13.4L65.66 23.15C67.1 24.78 68.77 25.67 70.4 25.67 72.19 25.67 73.82 24.7 74.48 23.26 75.06 22.02 75.3 20.54 75.3 18.37 75.3 16.04 74.95 13.98 74.41 12.82Z" fill="#646464"/><path d="M86.35 4.74C85.03 4.74 83.98 3.69 83.98 2.41 83.98 1.13 85.03 0 86.35 0 87.67 0 88.72 1.05 88.72 2.37 88.72 3.69 87.67 4.74 86.35 4.74ZM84.72 27.69 84.72 8.43 87.87 7.93 87.87 27.7 84.72 27.7Z" fill="#646464"/><path d="M102.23 28.19C96.91 28.19 93.88 24.27 93.88 17.9 93.88 11.53 97.03 7.76 102.11 7.76 105.33 7.76 107.43 9.24 108.75 11.14 109.95 12.89 110.54 15.18 110.54 18.32 110.54 24.77 107.08 28.18 102.23 28.18ZM106.19 12.73C105.37 11.02 103.67 10.24 102.07 10.24 100.36 10.24 98.77 11.06 98.11 12.34 97.49 13.54 97.18 15.1 97.18 17.39 97.18 20.11 97.65 22.52 98.38 23.72 99.08 24.89 100.63 25.66 102.3 25.66 104.32 25.66 105.83 24.61 106.49 22.75 106.92 21.55 107.07 20.46 107.07 18.56 107.07 15.84 106.8 14.02 106.18 12.73Z" fill="#646464"/><path d="M127.7 27.69 127.7 14.6C127.7 12.54 127.54 12.04 127 11.38 126.57 10.88 125.76 10.56 124.86 10.56 123.31 10.56 120.9 11.8 119.5 13.28L119.5 27.69 116.55 27.69 116.55 12.78C116.55 10.02 115.81 8.7 115.81 8.7L118.76 7.88C118.76 7.88 119.46 9.32 119.46 10.91 121.48 8.89 123.5 7.92 125.56 7.92 127.62 7.92 129.52 9.05 130.3 10.75 130.61 11.45 130.77 12.23 130.77 13L130.77 27.68 127.7 27.68Z" fill="#646464"/><path d="M140.47 18.52 140.47 18.99C140.47 20.82 140.7 22.21 141.36 23.22 142.45 24.89 144.23 25.59 146.17 25.59 148.11 25.59 149.55 25.01 150.91 23.76L152.08 25.7C150.37 27.25 148.04 28.11 145.56 28.11 140.2 28.11 136.98 24.23 136.98 17.82 136.98 14.56 137.68 12.46 139.31 10.52 140.86 8.69 142.77 7.84 145.1 7.84 147.2 7.84 149.02 8.58 150.34 9.94 152.01 11.65 152.55 13.47 152.55 18.1L152.55 18.53 140.47 18.53ZM148.43 11.92C147.77 10.87 146.41 10.21 144.93 10.21 142.17 10.21 140.62 12.23 140.46 16.23L149.31 16.23C149.27 14.13 149 12.85 148.42 11.92Z" fill="#646464"/><path d="M160.7 18.52 160.7 18.99C160.7 20.82 160.93 22.21 161.59 23.22 162.68 24.89 164.46 25.59 166.4 25.59 168.34 25.59 169.78 25.01 171.14 23.76L172.31 25.7C170.6 27.25 168.27 28.11 165.79 28.11 160.43 28.11 157.21 24.23 157.21 17.82 157.21 14.56 157.91 12.46 159.54 10.52 161.09 8.69 163 7.84 165.33 7.84 167.43 7.84 169.25 8.58 170.57 9.94 172.24 11.65 172.78 13.47 172.78 18.1L172.78 18.53 160.7 18.53ZM168.66 11.92C168 10.87 166.64 10.21 165.16 10.21 162.4 10.21 160.85 12.23 160.69 16.23L169.54 16.23C169.5 14.13 169.23 12.85 168.65 11.92Z" fill="#646464"/><path d="M186.83 11.26C186.64 11.18 186.29 11.1 185.98 11.1 184.81 11.1 183.65 11.6 182.76 12.5 181.87 13.39 181.63 13.98 181.63 15.57L181.63 27.69 178.6 27.69 178.6 12.78C178.6 9.95 177.94 8.66 177.94 8.66L180.97 7.84C180.97 7.84 181.71 9.35 181.59 10.99 182.99 9.01 185.05 7.77 187.03 7.77 187.53 7.77 188.08 7.96 188.08 7.96L186.84 11.26Z" fill="#646464"/><path d="M221.16 27.69 221.16 13.4C221.16 11.54 220.31 10.57 218.67 10.57 216.92 10.57 215.56 11.7 213.54 13.56L213.54 27.7 210.47 27.7 210.47 13.95C210.47 12.78 210.35 12.01 209.93 11.46 209.46 10.92 208.84 10.68 207.95 10.68 206.47 10.68 205.04 11.42 203.02 13.24L203.02 27.69 200.11 27.69 200.11 12.7C200.11 9.9 199.41 8.58 199.41 8.58L202.36 7.88C202.36 7.88 203.06 9.39 203.06 10.75 204.34 9.31 206.71 7.84 208.69 7.84 210.67 7.84 212.5 9.01 213.19 11.06 215.05 9.08 217.42 7.84 219.4 7.84 222.27 7.84 224.25 10.01 224.25 13.08L224.25 27.68 221.14 27.68Z" fill="#646464"/><path d="M238.63 28.19C233.31 28.19 230.28 24.27 230.28 17.9 230.28 11.53 233.43 7.76 238.51 7.76 241.73 7.76 243.83 9.24 245.15 11.14 246.35 12.89 246.94 15.18 246.94 18.32 246.94 24.77 243.48 28.18 238.63 28.18ZM242.59 12.73C241.77 11.02 240.07 10.24 238.47 10.24 236.76 10.24 235.17 11.06 234.51 12.34 233.89 13.54 233.58 15.1 233.58 17.39 233.58 20.11 234.05 22.52 234.78 23.72 235.48 24.89 237.03 25.66 238.7 25.66 240.72 25.66 242.23 24.61 242.89 22.75 243.32 21.55 243.47 20.46 243.47 18.56 243.47 15.84 243.2 14.02 242.58 12.73Z" fill="#646464"/><path d="M259.98 10.64 255.94 10.64 255.94 23.11C255.94 25.25 256.52 25.98 258.43 25.98 259.28 25.98 259.79 25.86 260.33 25.59L260.76 27.53C259.79 28.03 258.7 28.31 257.34 28.31 256.33 28.31 255.55 28.12 254.82 27.77 253.46 27.11 252.96 25.87 252.96 23.93L252.96 10.65 250.44 10.65 250.44 8.36 252.96 8.36C252.96 6.5 253.27 3.47 253.27 3.47L256.45 2.77C256.45 2.77 256.06 5.8 256.06 8.36L260.91 8.36 259.98 10.65Z" fill="#646464"/><path d="M267.01 4.74C265.69 4.74 264.64 3.69 264.64 2.41 264.64 1.13 265.69 0 267.01 0 268.33 0 269.38 1.05 269.38 2.37 269.38 3.69 268.33 4.74 267.01 4.74ZM265.38 27.69 265.38 8.43 268.53 7.93 268.53 27.7 265.38 27.7Z" fill="#646464"/><path d="M282.89 28.19C277.57 28.19 274.54 24.27 274.54 17.9 274.54 11.53 277.69 7.76 282.77 7.76 285.99 7.76 288.09 9.24 289.41 11.14 290.61 12.89 291.2 15.18 291.2 18.32 291.2 24.77 287.74 28.18 282.89 28.18ZM286.85 12.73C286.03 11.02 284.33 10.24 282.73 10.24 281.02 10.24 279.43 11.06 278.77 12.34 278.15 13.54 277.84 15.1 277.84 17.39 277.84 20.11 278.31 22.52 279.04 23.72 279.74 24.89 281.29 25.66 282.96 25.66 284.98 25.66 286.49 24.61 287.15 22.75 287.58 21.55 287.73 20.46 287.73 18.56 287.73 15.84 287.46 14.02 286.84 12.73Z" fill="#646464"/><path d="M308.36 27.69 308.36 14.6C308.36 12.54 308.2 12.04 307.66 11.38 307.23 10.88 306.42 10.56 305.52 10.56 303.97 10.56 301.56 11.8 300.16 13.28L300.16 27.69 297.21 27.69 297.21 12.78C297.21 10.02 296.47 8.7 296.47 8.7L299.42 7.88C299.42 7.88 300.12 9.32 300.12 10.91 302.14 8.89 304.16 7.92 306.22 7.92 308.28 7.92 310.18 9.05 310.96 10.75 311.27 11.45 311.43 12.23 311.43 13L311.43 27.68 308.36 27.68Z" fill="#646464"/></svg>